<svg viewBox="0 0 720 400" role="img" aria-labelledby="l57f6-t l57f6-d">
  <title id="l57f6-t">A selective query, and the group that answers it</title>
  <desc id="l57f6-d">Top: an archetype holding the matching entities as a contiguous chunk, compared with a sparse set whose dense velocity pool reaches into a transform pool where only one element in four is wanted. Bottom: the same sparse set with both pools sorted so the members occupy the front of each in the same order, which removes the redirect entirely.</desc>
  <defs>
    <marker id="e-i-l57f6" viewBox="0 0 10 10" refX="9" refY="5" markerWidth="6" markerHeight="6" orient="auto-start-reverse"><path d="M0,0 L10,5 L0,10 z" fill="var(--dia-ink)"/></marker>
    <marker id="e-s-l57f6" viewBox="0 0 10 10" refX="9" refY="5" markerWidth="6" markerHeight="6" orient="auto-start-reverse"><path d="M0,0 L10,5 L0,10 z" fill="var(--dia-ink-soft)"/></marker>
    <marker id="e-h-l57f6" viewBox="0 0 10 10" refX="9" refY="5" markerWidth="6" markerHeight="6" orient="auto-start-reverse"><path d="M0,0 L10,5 L0,10 z" fill="var(--dia-hi)"/></marker>
    <marker id="e-b-l57f6" viewBox="0 0 10 10" refX="9" refY="5" markerWidth="6" markerHeight="6" orient="auto-start-reverse"><path d="M0,0 L10,5 L0,10 z" fill="#e05c5c"/></marker>
    <marker id="e-g-l57f6" viewBox="0 0 10 10" refX="9" refY="5" markerWidth="6" markerHeight="6" orient="auto-start-reverse"><path d="M0,0 L10,5 L0,10 z" fill="#5ac878"/></marker>
  </defs>
<text x="20" y="20" class="sm" text-anchor="start">A query matching one entity in four — the archetype's best case — and the move that answers it.</text>
<text x="24" y="48" class="xs t-hi" text-anchor="start">ARCHETYPE: the matching entities are a chunk of their own.</text>
<rect x="60" y="58" width="30" height="16" rx="3" fill="#5082e6" stroke="#5082e6" stroke-width="1.2" fill-opacity="0.26"/>
<rect x="94" y="58" width="30" height="16" rx="3" fill="#5082e6" stroke="#5082e6" stroke-width="1.2" fill-opacity="0.26"/>
<rect x="128" y="58" width="30" height="16" rx="3" fill="#5082e6" stroke="#5082e6" stroke-width="1.2" fill-opacity="0.26"/>
<rect x="162" y="58" width="30" height="16" rx="3" fill="#5082e6" stroke="#5082e6" stroke-width="1.2" fill-opacity="0.26"/>
<rect x="196" y="58" width="30" height="16" rx="3" fill="#5082e6" stroke="#5082e6" stroke-width="1.2" fill-opacity="0.26"/>
<rect x="230" y="58" width="30" height="16" rx="3" fill="#5082e6" stroke="#5082e6" stroke-width="1.2" fill-opacity="0.26"/>
<rect x="264" y="58" width="30" height="16" rx="3" fill="#5082e6" stroke="#5082e6" stroke-width="1.2" fill-opacity="0.26"/>
<rect x="298" y="58" width="30" height="16" rx="3" fill="#5082e6" stroke="#5082e6" stroke-width="1.2" fill-opacity="0.26"/>
<text x="346" y="70" class="xs muted" text-anchor="start">8 rows, contiguous, all wanted</text>
<text x="24" y="100" class="xs t-hi" text-anchor="start">SPARSE SET: the velocity pool is dense, but the transforms it reaches are one in four.</text>
<rect x="60" y="110" width="30" height="16" rx="3" fill="#5082e6" stroke="#5082e6" stroke-width="1.2" fill-opacity="0.26"/>
<rect x="94" y="110" width="30" height="16" rx="3" fill="#5082e6" stroke="#5082e6" stroke-width="1.2" fill-opacity="0.26"/>
<rect x="128" y="110" width="30" height="16" rx="3" fill="#5082e6" stroke="#5082e6" stroke-width="1.2" fill-opacity="0.26"/>
<rect x="162" y="110" width="30" height="16" rx="3" fill="#5082e6" stroke="#5082e6" stroke-width="1.2" fill-opacity="0.26"/>
<rect x="196" y="110" width="30" height="16" rx="3" fill="#5082e6" stroke="#5082e6" stroke-width="1.2" fill-opacity="0.26"/>
<rect x="230" y="110" width="30" height="16" rx="3" fill="#5082e6" stroke="#5082e6" stroke-width="1.2" fill-opacity="0.26"/>
<rect x="264" y="110" width="30" height="16" rx="3" fill="#5082e6" stroke="#5082e6" stroke-width="1.2" fill-opacity="0.26"/>
<rect x="298" y="110" width="30" height="16" rx="3" fill="#5082e6" stroke="#5082e6" stroke-width="1.2" fill-opacity="0.26"/>
<text x="346" y="122" class="xs muted" text-anchor="start">vel.dense — dense, all wanted</text>
<rect x="60.0" y="138" width="7" height="16" rx="2" fill="#f0961e" fill-opacity="0.45" stroke="#f0961e" stroke-opacity="1.0" stroke-width="1.2"/>
<rect x="68.5" y="138" width="7" height="16" rx="2" fill="#8f918a" fill-opacity="0.06" stroke="#8f918a" stroke-opacity="0.35" stroke-width="1.2"/>
<rect x="77.0" y="138" width="7" height="16" rx="2" fill="#8f918a" fill-opacity="0.06" stroke="#8f918a" stroke-opacity="0.35" stroke-width="1.2"/>
<rect x="85.5" y="138" width="7" height="16" rx="2" fill="#8f918a" fill-opacity="0.06" stroke="#8f918a" stroke-opacity="0.35" stroke-width="1.2"/>
<rect x="94.0" y="138" width="7" height="16" rx="2" fill="#f0961e" fill-opacity="0.45" stroke="#f0961e" stroke-opacity="1.0" stroke-width="1.2"/>
<rect x="102.5" y="138" width="7" height="16" rx="2" fill="#8f918a" fill-opacity="0.06" stroke="#8f918a" stroke-opacity="0.35" stroke-width="1.2"/>
<rect x="111.0" y="138" width="7" height="16" rx="2" fill="#8f918a" fill-opacity="0.06" stroke="#8f918a" stroke-opacity="0.35" stroke-width="1.2"/>
<rect x="119.5" y="138" width="7" height="16" rx="2" fill="#8f918a" fill-opacity="0.06" stroke="#8f918a" stroke-opacity="0.35" stroke-width="1.2"/>
<rect x="128.0" y="138" width="7" height="16" rx="2" fill="#f0961e" fill-opacity="0.45" stroke="#f0961e" stroke-opacity="1.0" stroke-width="1.2"/>
<rect x="136.5" y="138" width="7" height="16" rx="2" fill="#8f918a" fill-opacity="0.06" stroke="#8f918a" stroke-opacity="0.35" stroke-width="1.2"/>
<rect x="145.0" y="138" width="7" height="16" rx="2" fill="#8f918a" fill-opacity="0.06" stroke="#8f918a" stroke-opacity="0.35" stroke-width="1.2"/>
<rect x="153.5" y="138" width="7" height="16" rx="2" fill="#8f918a" fill-opacity="0.06" stroke="#8f918a" stroke-opacity="0.35" stroke-width="1.2"/>
<rect x="162.0" y="138" width="7" height="16" rx="2" fill="#f0961e" fill-opacity="0.45" stroke="#f0961e" stroke-opacity="1.0" stroke-width="1.2"/>
<rect x="170.5" y="138" width="7" height="16" rx="2" fill="#8f918a" fill-opacity="0.06" stroke="#8f918a" stroke-opacity="0.35" stroke-width="1.2"/>
<rect x="179.0" y="138" width="7" height="16" rx="2" fill="#8f918a" fill-opacity="0.06" stroke="#8f918a" stroke-opacity="0.35" stroke-width="1.2"/>
<rect x="187.5" y="138" width="7" height="16" rx="2" fill="#8f918a" fill-opacity="0.06" stroke="#8f918a" stroke-opacity="0.35" stroke-width="1.2"/>
<rect x="196.0" y="138" width="7" height="16" rx="2" fill="#f0961e" fill-opacity="0.45" stroke="#f0961e" stroke-opacity="1.0" stroke-width="1.2"/>
<rect x="204.5" y="138" width="7" height="16" rx="2" fill="#8f918a" fill-opacity="0.06" stroke="#8f918a" stroke-opacity="0.35" stroke-width="1.2"/>
<rect x="213.0" y="138" width="7" height="16" rx="2" fill="#8f918a" fill-opacity="0.06" stroke="#8f918a" stroke-opacity="0.35" stroke-width="1.2"/>
<rect x="221.5" y="138" width="7" height="16" rx="2" fill="#8f918a" fill-opacity="0.06" stroke="#8f918a" stroke-opacity="0.35" stroke-width="1.2"/>
<rect x="230.0" y="138" width="7" height="16" rx="2" fill="#f0961e" fill-opacity="0.45" stroke="#f0961e" stroke-opacity="1.0" stroke-width="1.2"/>
<rect x="238.5" y="138" width="7" height="16" rx="2" fill="#8f918a" fill-opacity="0.06" stroke="#8f918a" stroke-opacity="0.35" stroke-width="1.2"/>
<rect x="247.0" y="138" width="7" height="16" rx="2" fill="#8f918a" fill-opacity="0.06" stroke="#8f918a" stroke-opacity="0.35" stroke-width="1.2"/>
<rect x="255.5" y="138" width="7" height="16" rx="2" fill="#8f918a" fill-opacity="0.06" stroke="#8f918a" stroke-opacity="0.35" stroke-width="1.2"/>
<rect x="264.0" y="138" width="7" height="16" rx="2" fill="#f0961e" fill-opacity="0.45" stroke="#f0961e" stroke-opacity="1.0" stroke-width="1.2"/>
<rect x="272.5" y="138" width="7" height="16" rx="2" fill="#8f918a" fill-opacity="0.06" stroke="#8f918a" stroke-opacity="0.35" stroke-width="1.2"/>
<rect x="281.0" y="138" width="7" height="16" rx="2" fill="#8f918a" fill-opacity="0.06" stroke="#8f918a" stroke-opacity="0.35" stroke-width="1.2"/>
<rect x="289.5" y="138" width="7" height="16" rx="2" fill="#8f918a" fill-opacity="0.06" stroke="#8f918a" stroke-opacity="0.35" stroke-width="1.2"/>
<rect x="298.0" y="138" width="7" height="16" rx="2" fill="#f0961e" fill-opacity="0.45" stroke="#f0961e" stroke-opacity="1.0" stroke-width="1.2"/>
<rect x="306.5" y="138" width="7" height="16" rx="2" fill="#8f918a" fill-opacity="0.06" stroke="#8f918a" stroke-opacity="0.35" stroke-width="1.2"/>
<rect x="315.0" y="138" width="7" height="16" rx="2" fill="#8f918a" fill-opacity="0.06" stroke="#8f918a" stroke-opacity="0.35" stroke-width="1.2"/>
<rect x="323.5" y="138" width="7" height="16" rx="2" fill="#8f918a" fill-opacity="0.06" stroke="#8f918a" stroke-opacity="0.35" stroke-width="1.2"/>
<text x="346" y="150" class="xs muted" text-anchor="start">xf.data — three quarters fetched for nothing</text>
<line x1="75" y1="128" x2="63.5" y2="136" class="ink-soft" stroke-width="0.8" marker-end="url(#e-s-l57f6)"/>
<line x1="109" y1="128" x2="97.5" y2="136" class="ink-soft" stroke-width="0.8" marker-end="url(#e-s-l57f6)"/>
<line x1="143" y1="128" x2="131.5" y2="136" class="ink-soft" stroke-width="0.8" marker-end="url(#e-s-l57f6)"/>
<line x1="177" y1="128" x2="165.5" y2="136" class="ink-soft" stroke-width="0.8" marker-end="url(#e-s-l57f6)"/>
<line x1="211" y1="128" x2="199.5" y2="136" class="ink-soft" stroke-width="0.8" marker-end="url(#e-s-l57f6)"/>
<line x1="245" y1="128" x2="233.5" y2="136" class="ink-soft" stroke-width="0.8" marker-end="url(#e-s-l57f6)"/>
<line x1="279" y1="128" x2="267.5" y2="136" class="ink-soft" stroke-width="0.8" marker-end="url(#e-s-l57f6)"/>
<line x1="313" y1="128" x2="301.5" y2="136" class="ink-soft" stroke-width="0.8" marker-end="url(#e-s-l57f6)"/>
<text x="24" y="176" class="xs" text-anchor="start">Every cache line the transform pool hands over contains one wanted transform and two unwanted ones. Measured:</text>
<text x="24" y="192" class="xs" style="fill:#e05c5c" text-anchor="start">1.46x on the real body at 100,000 entities, and 1.94x once the pools’ orders have diverged.</text>
<line x1="24" y1="208" x2="696" y2="208" class="grid" stroke-width="1.2"/>
<text x="24" y="230" class="xs t-ok" text-anchor="start">THE GROUP — sort both pools so the members come first, in the same order.</text>
<rect x="60" y="242" width="30" height="16" rx="3" fill="#5082e6" stroke="#5082e6" stroke-width="1.2" fill-opacity="0.26"/>
<rect x="94" y="242" width="30" height="16" rx="3" fill="#5082e6" stroke="#5082e6" stroke-width="1.2" fill-opacity="0.26"/>
<rect x="128" y="242" width="30" height="16" rx="3" fill="#5082e6" stroke="#5082e6" stroke-width="1.2" fill-opacity="0.26"/>
<rect x="162" y="242" width="30" height="16" rx="3" fill="#5082e6" stroke="#5082e6" stroke-width="1.2" fill-opacity="0.26"/>
<rect x="196" y="242" width="30" height="16" rx="3" fill="#5082e6" stroke="#5082e6" stroke-width="1.2" fill-opacity="0.26"/>
<rect x="230" y="242" width="30" height="16" rx="3" fill="#5082e6" stroke="#5082e6" stroke-width="1.2" fill-opacity="0.26"/>
<rect x="264" y="242" width="30" height="16" rx="3" fill="#5082e6" stroke="#5082e6" stroke-width="1.2" fill-opacity="0.26"/>
<rect x="298" y="242" width="30" height="16" rx="3" fill="#5082e6" stroke="#5082e6" stroke-width="1.2" fill-opacity="0.26"/>
<text x="346" y="254" class="xs mono muted" text-anchor="start">vel.dense</text>
<rect x="60" y="268" width="30" height="16" rx="3" fill="#f0961e" stroke="#f0961e" stroke-width="1.2" fill-opacity="0.26"/>
<rect x="94" y="268" width="30" height="16" rx="3" fill="#f0961e" stroke="#f0961e" stroke-width="1.2" fill-opacity="0.26"/>
<rect x="128" y="268" width="30" height="16" rx="3" fill="#f0961e" stroke="#f0961e" stroke-width="1.2" fill-opacity="0.26"/>
<rect x="162" y="268" width="30" height="16" rx="3" fill="#f0961e" stroke="#f0961e" stroke-width="1.2" fill-opacity="0.26"/>
<rect x="196" y="268" width="30" height="16" rx="3" fill="#f0961e" stroke="#f0961e" stroke-width="1.2" fill-opacity="0.26"/>
<rect x="230" y="268" width="30" height="16" rx="3" fill="#f0961e" stroke="#f0961e" stroke-width="1.2" fill-opacity="0.26"/>
<rect x="264" y="268" width="30" height="16" rx="3" fill="#f0961e" stroke="#f0961e" stroke-width="1.2" fill-opacity="0.26"/>
<rect x="298" y="268" width="30" height="16" rx="3" fill="#f0961e" stroke="#f0961e" stroke-width="1.2" fill-opacity="0.26"/>
<rect x="60.0" y="292" width="10" height="10" rx="2" fill="#8f918a" fill-opacity="0.06" stroke="#8f918a" stroke-opacity="0.35" stroke-width="1.2"/>
<rect x="71.4" y="292" width="10" height="10" rx="2" fill="#8f918a" fill-opacity="0.06" stroke="#8f918a" stroke-opacity="0.35" stroke-width="1.2"/>
<rect x="82.8" y="292" width="10" height="10" rx="2" fill="#8f918a" fill-opacity="0.06" stroke="#8f918a" stroke-opacity="0.35" stroke-width="1.2"/>
<rect x="94.2" y="292" width="10" height="10" rx="2" fill="#8f918a" fill-opacity="0.06" stroke="#8f918a" stroke-opacity="0.35" stroke-width="1.2"/>
<rect x="105.6" y="292" width="10" height="10" rx="2" fill="#8f918a" fill-opacity="0.06" stroke="#8f918a" stroke-opacity="0.35" stroke-width="1.2"/>
<rect x="117.0" y="292" width="10" height="10" rx="2" fill="#8f918a" fill-opacity="0.06" stroke="#8f918a" stroke-opacity="0.35" stroke-width="1.2"/>
<rect x="128.4" y="292" width="10" height="10" rx="2" fill="#8f918a" fill-opacity="0.06" stroke="#8f918a" stroke-opacity="0.35" stroke-width="1.2"/>
<rect x="139.8" y="292" width="10" height="10" rx="2" fill="#8f918a" fill-opacity="0.06" stroke="#8f918a" stroke-opacity="0.35" stroke-width="1.2"/>
<rect x="151.2" y="292" width="10" height="10" rx="2" fill="#8f918a" fill-opacity="0.06" stroke="#8f918a" stroke-opacity="0.35" stroke-width="1.2"/>
<rect x="162.60000000000002" y="292" width="10" height="10" rx="2" fill="#8f918a" fill-opacity="0.06" stroke="#8f918a" stroke-opacity="0.35" stroke-width="1.2"/>
<rect x="174.0" y="292" width="10" height="10" rx="2" fill="#8f918a" fill-opacity="0.06" stroke="#8f918a" stroke-opacity="0.35" stroke-width="1.2"/>
<rect x="185.4" y="292" width="10" height="10" rx="2" fill="#8f918a" fill-opacity="0.06" stroke="#8f918a" stroke-opacity="0.35" stroke-width="1.2"/>
<rect x="196.8" y="292" width="10" height="10" rx="2" fill="#8f918a" fill-opacity="0.06" stroke="#8f918a" stroke-opacity="0.35" stroke-width="1.2"/>
<rect x="208.20000000000002" y="292" width="10" height="10" rx="2" fill="#8f918a" fill-opacity="0.06" stroke="#8f918a" stroke-opacity="0.35" stroke-width="1.2"/>
<rect x="219.6" y="292" width="10" height="10" rx="2" fill="#8f918a" fill-opacity="0.06" stroke="#8f918a" stroke-opacity="0.35" stroke-width="1.2"/>
<rect x="231.0" y="292" width="10" height="10" rx="2" fill="#8f918a" fill-opacity="0.06" stroke="#8f918a" stroke-opacity="0.35" stroke-width="1.2"/>
<rect x="242.4" y="292" width="10" height="10" rx="2" fill="#8f918a" fill-opacity="0.06" stroke="#8f918a" stroke-opacity="0.35" stroke-width="1.2"/>
<rect x="253.8" y="292" width="10" height="10" rx="2" fill="#8f918a" fill-opacity="0.06" stroke="#8f918a" stroke-opacity="0.35" stroke-width="1.2"/>
<rect x="265.20000000000005" y="292" width="10" height="10" rx="2" fill="#8f918a" fill-opacity="0.06" stroke="#8f918a" stroke-opacity="0.35" stroke-width="1.2"/>
<rect x="276.6" y="292" width="10" height="10" rx="2" fill="#8f918a" fill-opacity="0.06" stroke="#8f918a" stroke-opacity="0.35" stroke-width="1.2"/>
<rect x="288.0" y="292" width="10" height="10" rx="2" fill="#8f918a" fill-opacity="0.06" stroke="#8f918a" stroke-opacity="0.35" stroke-width="1.2"/>
<rect x="299.4" y="292" width="10" height="10" rx="2" fill="#8f918a" fill-opacity="0.06" stroke="#8f918a" stroke-opacity="0.35" stroke-width="1.2"/>
<rect x="310.8" y="292" width="10" height="10" rx="2" fill="#8f918a" fill-opacity="0.06" stroke="#8f918a" stroke-opacity="0.35" stroke-width="1.2"/>
<rect x="322.2" y="292" width="10" height="10" rx="2" fill="#8f918a" fill-opacity="0.06" stroke="#8f918a" stroke-opacity="0.35" stroke-width="1.2"/>
<text x="346" y="280" class="xs mono muted" text-anchor="start">xf.dense — members moved to the front</text>
<text x="346" y="301" class="xs muted" text-anchor="start">non-members, still there, behind them</text>
<line x1="75" y1="260" x2="75" y2="266" class="hi" stroke-width="1.2"/>
<line x1="109" y1="260" x2="109" y2="266" class="hi" stroke-width="1.2"/>
<line x1="143" y1="260" x2="143" y2="266" class="hi" stroke-width="1.2"/>
<line x1="177" y1="260" x2="177" y2="266" class="hi" stroke-width="1.2"/>
<line x1="211" y1="260" x2="211" y2="266" class="hi" stroke-width="1.2"/>
<line x1="245" y1="260" x2="245" y2="266" class="hi" stroke-width="1.2"/>
<line x1="279" y1="260" x2="279" y2="266" class="hi" stroke-width="1.2"/>
<line x1="313" y1="260" x2="313" y2="266" class="hi" stroke-width="1.2"/>
<text x="24" y="322" class="xs" text-anchor="start">Index i of one array and index i of the other are now the same entity — which is exactly the guarantee an archetype chunk</text>
<text x="24" y="336" class="xs t-ok" text-anchor="start">gives. No sparse read at all. Measured: 0.99x to 1.01x of the archetype, at every size.</text>
<line x1="24" y1="352" x2="696" y2="352" class="grid" stroke-width="1.2" stroke-dasharray="2 3"/>
<text x="24" y="372" class="xs t-hi" text-anchor="start">THE MIGRATION ONLY RUNS ONE WAY.</text>
<text x="232" y="372" class="xs" text-anchor="start">A sparse set can be given an archetype's query later, one group at a time.</text>
<text x="24" y="388" class="xs" text-anchor="start">An archetype cannot be given a sparse set's O(1) structural change at all. That asymmetry is the decision.</text>
</svg>
